<?xml version="1.0" encoding="UTF-8" standalone="no"?>
<svg
   version="1.1"
   width="512"
   height="512"
   id="svg79"
   sodipodi:docname="bonfire-icon.svg"
   inkscape:version="1.4.3 (0d15f75, 2025-12-25)"
   xmlns:inkscape="http://www.inkscape.org/namespaces/inkscape"
   xmlns:sodipodi="http://sodipodi.sourceforge.net/DTD/sodipodi-0.dtd"
   xmlns="http://www.w3.org/2000/svg"
   xmlns:svg="http://www.w3.org/2000/svg">
  <defs>
    <linearGradient id="flameGrad" x1="0%" y1="100%" x2="0%" y2="0%">
      <stop offset="0%" stop-color="red" />
      <stop offset="100%" stop-color="orange" />
    </linearGradient>
  </defs>
  <sodipodi:namedview
     id="namedview79"
     pagecolor="#ffffff"
     bordercolor="#000000"
     borderopacity="0.25"
     inkscape:showpageshadow="2"
     inkscape:pageopacity="0.0"
     inkscape:pagecheckerboard="0"
     inkscape:deskcolor="#d1d1d1"
     inkscape:zoom="1.1255704"
     inkscape:cx="88.399627"
     inkscape:cy="170.13596"
     inkscape:window-width="1920"
     inkscape:window-height="1017"
     inkscape:window-x="-8"
     inkscape:window-y="-8"
     inkscape:window-maximized="1"
     inkscape:current-layer="svg79" />
  <path
     d="M 0,0 2.1838379,-0.04321289 C 10.552843,0.03439323 17.366291,3.5172334 23.449219,9.28125 30.947405,17.153652 33.36574,24.334703 34.3125,34.9375 c 0.647426,7.212823 2.258935,11.896239 7.125,17.4375 16.234126,19.386383 18.862494,47.344424 16.777344,71.58887 -1.19708,10.77793 -3.49314,21.33306 -6.239014,31.81543 -3.2056,12.90456 1.345766,23.2948 6.39917,35.0957 l 1.013672,2.39453 c 10.396853,24.47968 22.560972,47.85091 35.61792,71.00098 21.978758,39.00995 46.391408,84.04159 34.214848,130.43066 -1.84396,6.37163 -4.19428,12.57115 -6.78394,18.67383 l 1,1 c 4.88206,-4.3514 8.57882,-9.02448 12.1875,-14.4375 l 1.25928,-1.87915 c 4.3824,-6.69976 7.68419,-13.51808 10.17822,-21.12085 l 1.22656,-3.68359 c 0.39154,-1.29036 0.77417,-2.58344 1.14844,-3.87891 l 0.57959,-1.98706 c 4.21438,-16.33875 2.72262,-35.85224 -1.98975,-51.94898 -0.61124,-2.13885 -1.13767,-4.28668 -1.65234,-6.45068 -2.72695,-11.09645 -7.04081,-21.17945 -11.94189,-31.47876 -0.88722,-1.90213 -1.71164,-3.83326 -2.52686,-5.76733 -1.59057,-3.64646 -3.42238,-7.07619 -5.34375,-10.55469 -2.49791,-4.58642 -4.7612,-9.13625 -6.6875,-14 -2.11692,-5.32805 -4.86525,-10.05517 -7.82031,-14.95703 -1.43543,-2.53453 -2.53803,-4.94637 -3.55469,-7.66797 -1.60926,-4.29364 -3.62905,-8.28836 -5.8125,-12.3125 -3.851833,-7.11135 -7.583554,-14.26332 -11.115723,-21.53955 -0.820018,-1.6884 -1.645967,-3.37392 -2.475586,-5.05762 -1.428775,-2.916 -2.827653,-5.84485 -4.221191,-8.77783 l -1.376465,-2.78735 C 80.790371,168.28964 79.794326,164.6357 81.4375,158.375 c 2.569951,-3.17862 4.121843,-4.70728 8,-6 5.552427,-0.36409 9.294603,-0.31517 14,3 2.93183,4.7657 5.41189,9.73021 7.875,14.75 2.79647,5.65639 5.69322,11.22877 8.80078,16.72266 1.62634,3.10394 2.94727,6.30529 4.32422,9.52734 1.1909,2.4987 2.43666,4.96836 3.6875,7.4375 0.70847,1.40618 1.41679,2.81244 2.125,4.21875 l 1.09375,2.16797 c 1.08019,2.14881 2.1511,4.30197 3.21875,6.45703 4.14345,8.38556 4.14345,8.38556 8.625,16.59375 2.17899,3.8114 3.71498,7.75512 5.28516,11.84766 1.28578,3.03485 3.08638,5.57705 4.96484,8.27734 2.30207,4.11854 4.151,8.33818 5.8125,12.75 1.45511,3.72172 3.17089,7.02677 5.25,10.4375 5.21626,8.67511 9.30757,17.91793 13.62695,27.06104 2.69929,5.66708 5.53282,11.26631 8.36328,16.86865 0.97427,1.93647 1.93861,3.87761 2.90039,5.82031 3.77949,7.62518 7.67138,15.1776 11.68018,22.68481 2.97889,5.59622 5.83701,11.24629 8.62842,16.93824 1.52637,3.09514 3.1099,6.11946 4.85156,9.09961 1.53987,2.72585 2.71329,5.22173 3.76172,8.15234 1.32017,3.41214 2.78856,6.41459 4.75,9.5 3.238,5.22232 5.94334,10.66556 8.625,16.1875 l 1.32275,2.66138 c 5.77393,12.04979 6.94923,22.86277 2.75147,35.58862 -4.32546,10.61588 -12.22123,18.69891 -22.5625,23.52344 -3.16049,1.30344 -5.66666,1.85245 -9.05463,1.85799 l -2.67057,0.0116 -2.93676,-0.003 -3.11834,0.009 c -3.46566,0.009 -6.93128,0.0102 -10.39695,0.0117 l -7.43596,0.015 c -6.75101,0.0131 -13.50202,0.0196 -20.25305,0.024 -4.22293,0.003 -8.44586,0.007 -12.66879,0.0115 -11.70954,0.0122 -23.41908,0.0225 -35.12862,0.0259 l -2.27228,6.6e-4 -2.27759,6.6e-4 c -1.52289,4.5e-4 -3.04579,8.9e-4 -4.56869,10e-4 l -2.289094,6.8e-4 c -12.197685,0.004 -24.395311,0.0213 -36.592973,0.0447 -12.546726,0.0238 -25.093423,0.0362 -37.640172,0.0374 -7.034585,9.1e-4 -14.069092,0.007 -21.1036553,0.0248 -6.6336474,0.0172 -13.2671737,0.0186 -19.9008467,0.01 -2.419697,-7.7e-4 -4.839402,0.003 -7.259079,0.0134 -19.022459,0.0737 -37.316933,-1.39251 -55.75617,-6.30857 l -3.070312,-0.79932 c -2.79422,-0.73686 -5.581801,-1.4937 -8.367188,-2.26318 l -3.621094,-0.99609 c -14.473206,-4.41791 -30.131656,-13.23065 -41.879156,-23.28091 l -1.16608,-1.22261 -1.52092,-1.02067 c -1.51574,-1.34653 -1.91976,-1.46615 -4.25849,-3.92482 l -3.14516,-3.35332 c 0,0 1.29497,1.69945 -3.05417,-3.03429 l -2.92868,-2.5947 c -12.6443,-13.67205 -21.01565,-33.19155 -25.56297,-48.36492 -8.09199,-29.13042 -4.92247,-58.90823 5.13672,-87.20703 l 0.97266,-2.85547 c 5.20124,-14.4106 11.78937,-29.22083 20.49218,-41.86328 1.61721,-2.40317 3.04807,-4.88575 4.47095,-7.40771 1.80383,-3.17565 3.68573,-6.30417 5.56421,-9.43604 l 1.14453,-1.91992 c 2.34693,-3.91558 4.7973,-7.73486 7.35547,-11.51758 0.76647,-1.14787 1.53206,-2.29634 2.29688,-3.44531 l 1.20434,-1.80615 c 0.85575,-1.28389 1.71104,-2.56808 2.56592,-3.85254 2.05192,-3.08183 4.10802,-6.16031 6.18677,-9.22413 3.42874,-5.0748 6.64315,-10.14541 9.54296,-15.53906 1.25855,-2.23106 2.63649,-4.32837 4.07813,-6.44531 3.03509,-4.45925 5.70718,-9.09093 8.394531,-13.76563 1.556552,-2.62821 3.193278,-5.15217 4.917969,-7.67187 1.788853,-2.62459 3.336448,-5.1893 4.6875,-8.0625 1.717689,-3.62302 3.857486,-6.81995 6.125,-10.125 3.293404,-4.83565 4.805678,-10.15433 8.078528,-15.0625 l 1.764417,-3.21963 1.932223,-3.71778 c 2.446447,-4.20241 3.015058,-4.48884 5.412332,-8.93759 10.211129,-19.293311 20.454282,-39.121451 27.104004,-59.956543 1.519454,-4.650515 3.183539,-9.250533 4.833496,-13.855957 l 0.986084,-2.830566 C -29.759006,15.536231 -23.237511,6.165496 -13,1.3125 -8.7837115,0.0424295 -4.3721742,0.07152172 0,0 Z m -7.5625,29.375 c -1.1736254,2.644262 -2.0947391,5.070378 -2.9375,7.8125 -0.505015,1.534778 -1.012886,3.068618 -1.523438,4.601562 l -0.768554,2.333008 c -1.151298,3.366343 -2.479726,6.651155 -3.833008,9.94043 -1.939307,4.752809 -3.719414,9.516451 -5.375,14.375 -2.175075,6.209488 -4.930703,11.878354 -7.945312,17.707031 -1.351948,2.700629 -2.499696,5.343765 -3.554688,8.167969 -2.444149,6.37786 -5.806863,12.29722 -9.083984,18.27441 -0.881017,1.60993 -1.750789,3.22599 -2.619141,4.84278 -2.349424,4.36498 -4.7695,8.65581 -7.359375,12.88281 -2.23457,3.66399 -4.185636,7.39067 -6.0625,11.25 -1.961453,4.00974 -4.042919,7.51932 -6.734375,11.0625 -1.403898,2.04203 -2.441954,4.14176 -3.515625,6.375 -5.338029,10.99006 -12.422009,21.11557 -19.074219,31.34375 -2.189327,3.36893 -4.345411,6.75754 -6.488281,10.15625 -1.836549,2.9035 -3.7131,5.73384 -5.75,8.5 -1.80682,2.46971 -3.30117,4.99211 -4.75,7.6875 -1.75857,3.24491 -3.66311,6.24992 -5.8125,9.25 -26.75391,37.47879 -53.3614,84.76809 -45.69922,132.42578 2.55444,12.47434 6.31363,25.65469 13.88672,36.01172 l 1.61328,2.45312 c 4.24629,6.36455 9.15766,11.97396 14.38672,17.54688 1.36295,-4.08884 -0.18896,-6.57855 -1.75,-10.375 -10.93368,-27.8309 -8.63864,-56.88764 1.10254,-84.71143 0.79157,-2.33948 1.40959,-4.7093 2.02246,-7.10107 1.73711,-5.92905 4.75478,-11.32303 7.58984,-16.78516 1.41689,-2.74087 2.68811,-5.50599 3.89844,-8.34375 2.38207,-5.42985 5.35225,-10.47192 8.38672,-15.55859 l 1.74634,-2.94434 c 3.51095,-5.85963 7.159772,-11.44142 11.304441,-16.87207 2.342355,-3.18237 4.279851,-6.56078 6.265625,-9.97265 1.382887,-2.25332 2.875383,-4.31172 4.496094,-6.39844 2.084383,-2.68918 3.783184,-5.36824 5.375,-8.375 1.741382,-3.26509 3.666251,-6.06637 6,-8.9375 3.302819,-4.09808 5.718121,-8.39655 8.152344,-13.05078 1.243857,-2.27064 2.560973,-4.30876 4.097656,-6.38672 2.33206,-3.02715 2.33206,-3.02715 3.71875,-6.03125 1.592517,-3.15381 3.397903,-5.94016 5.40625,-8.84375 3.150353,-4.6593 5.972328,-9.36537 8.570313,-14.35156 1.409049,-2.57986 2.887173,-5.08438 4.410156,-7.59766 C -14.600649,126.63908 14.344891,78.008963 8.4375,35.375 c -1.9179807,-5.757713 -1.9179807,-5.757713 -6,-10 -4.6490295,-0.8564 -6.7271561,0.803269 -10,4 z m 35,52 -0.917969,3.042969 c -2.6839,8.80367 -5.60952,17.426731 -9.082031,25.957031 l -0.871094,2.15234 c -4.188088,10.30513 -8.6744646,20.37194 -13.788574,30.24952 -1.3419882,2.60135 -2.67086143,5.2092 -3.9976043,7.81835 -1.3184833,2.59005 -2.6426472,5.17717 -3.9679413,7.76374 -0.6577788,1.28528 -1.3140116,2.57135 -1.9685669,3.85827 -3.3964995,6.66967 -6.8791795,13.15096 -11.1464535,19.3133 -1.58338,2.3183 -2.904883,4.72899 -4.197266,7.21948 -2.496621,4.66423 -5.213824,9.11367 -8.085937,13.55469 -2.320832,3.60508 -4.586409,7.2426 -6.851563,10.88281 -3.311543,5.30555 -6.635724,10.6027 -10,15.875 l -2.117187,3.32422 c -2.007813,2.98828 -2.007813,2.98828 -4.015625,5.44531 -1.935205,2.47023 -3.467305,5.01678 -4.987305,7.75781 -1.595959,2.8352 -3.366315,5.55196 -5.129883,8.28516 l -1.165771,1.81055 c -2.047653,3.16811 -4.122514,6.31524 -6.236573,9.43945 -5.562071,8.22052 -10.664804,16.56765 -15.472656,25.25 l -1.324219,2.3125 c -2.733838,4.79557 -5.24774,9.7 -7.738281,14.625 l -0.996094,1.95264 c -4.329206,8.64325 -7.524846,17.49714 -10.128906,26.79736 l -0.78711,2.7207 c -4.96511,17.51261 -4.80102,36.32154 0.97461,53.5918 l 1.13281,3.48047 c 2.66766,7.5348 6.255867,14.00826 10.86719,20.51953 l 1.757813,2.50781 c 3.591816,4.88036 7.119931,8.25158 12.242187,11.49219 -1.309414,-4.07979 -2.804423,-8.00355 -4.5,-11.9375 -10.447692,-25.04373 -6.47836,-54.54843 3.5,-79.0625 5.963954,-14.2302 13.791481,-26.94725 22.53125,-39.63672 1.330591,-1.94706 1.01648,-2.57528 2.411081,-4.52034 l 1.371779,-1.96319 1.18589,-1.19225 c 2.362051,-4.75785 5.453344,-8.84933 8.625,-13.09375 1.465192,-2.02685 2.711986,-3.95483 3.875,-6.15625 1.793713,-3.08294 3.676639,-5.57168 5.9375,-8.3125 3.117365,-3.8018 5.513147,-7.5577 7.78125,-11.90234 1.900452,-3.29682 4.285181,-6.15245 6.664063,-9.11329 1.740444,-2.27014 3.111059,-4.65639 4.460937,-7.17578 1.526368,-2.55254 3.306925,-4.86921 5.09375,-7.24609 3.0884898,-4.17317 5.5557751,-8.26838 7.6640625,-13.00781 1.2684766,-2.43066 2.6552425,-4.57932 4.19921875,-6.83985 C 3.5321181,204.34351 6.3014543,199.28224 9,194.0625 l 1.462158,-2.81616 c 3.346985,-6.50907 6.321643,-13.04992 8.975342,-19.87134 0.651941,-1.54814 1.307198,-3.0949 1.964844,-4.64063 4.251368,-10.10751 7.297823,-19.50104 9.035156,-30.35937 0.370267,-1.56363 0.744867,-3.12624 1.125,-4.6875 3.219363,-16.39693 3.020152,-34.670295 -3.125,-50.3125 z m 5,120 -0.822754,1.69312 c -1.260769,2.58476 -2.531441,5.16454 -3.802246,7.74438 l -1.292969,2.66211 c -2.617758,5.29412 -5.431561,10.04394 -9.056152,14.71704 -1.471673,3.13212 -0.920819,4.86738 -0.02588,8.18335 0.995382,2.46834 2.024988,4.83801 3.167969,7.23437 l 0.961502,2.05475 c 0.671443,1.43038 1.346539,2.85905 2.02507,4.28608 1.021286,2.15022 2.028949,4.30643 3.034912,6.46386 3.224574,6.86504 6.538989,13.54496 10.5896,19.97241 1.161369,1.8915 2.149307,3.79511 3.095947,5.80103 2.587027,5.31132 5.797317,10.24354 8.922852,15.24951 1.763841,2.8435 3.497806,5.70494 5.235107,8.5647 4.592511,7.55573 9.273585,15.04163 14.092041,22.45532 3.749626,5.83536 6.408732,11.45323 8.875,17.91797 l 0.73291,1.89307 c 0.803052,2.07517 1.598496,4.15312 2.39209,6.23193 l 0.768799,1.9895 c 8.14549,21.55716 7.402939,47.78163 -1.893799,68.8855 l -1.722656,2.76953 -1.277344,2.23047 1,2 c 16.509872,-12.1577 25.183321,-31.54471 28.566411,-51.29688 2.91968,-24.93569 -4.15929,-50.41458 -16.550786,-71.97656 -1.821113,-3.20721 -3.094676,-6.46404 -4.331543,-9.93164 C 84.244497,296.86859 83.079933,294.88171 81.75,292.8125 79.179976,288.66873 76.831374,284.439 74.5625,280.125 71.36023,274.05401 68.01234,268.08321 64.589844,262.13281 62.07341,257.75011 59.592956,253.34765 57.125,248.9375 l -1.274902,-2.25903 c -2.424173,-4.34449 -4.49264,-8.70675 -6.412598,-13.30347 -1.40958,-3.05497 -2.862085,-6.08924 -4.3125,-9.125 -3.617128,-7.60063 -7.183596,-15.22137 -10.6875,-22.875 z m -34,57 -1.171875,1.75781 -4.828125,7.24219 -1.9492188,2.9375 c -2.0090512,3.00018 -4.0530312,5.97228 -6.1132812,8.9375 -0.786579,1.13533 -1.573031,2.27075 -2.359375,3.40625 -1.332409,1.92298 -2.666013,3.8451 -4.001953,5.76562 -1.465532,2.10756 -2.927309,4.21768 -4.388672,6.32813 l -1.381104,1.97998 c -2.095176,3.03147 -4.083774,6.06309 -5.880615,9.28174 -1.795494,3.13574 -3.740769,5.92868 -5.925781,8.80078 -5.602584,7.12768 -3.482339,3.67247 -7.68589,11.16495 l -2.31411,4.39755 c -2.050411,4.04764 -4.083247,8.10328 -6.09375,12.1709 -0.774657,1.5635 -1.558293,3.12255 -2.34375,4.68066 -3.610753,7.46975 -5.665385,15.095 -7.5625,23.14844 l -0.59375,2.41406 c -2.738224,17.42985 0.970098,34.82454 10.59375,49.58594 2.453105,2.69292 2.453105,2.69292 5,5 l 1.894531,2.17578 c 10.293718,11.46775 26.756462,18.01933 41.9609378,19.09766 C 13.09807,449.30715 31.762874,444.03368 46.535156,430.36719 50.256832,426.46974 53.241318,422.30999 56,417.6875 l 1.753906,-2.88672 C 61.685454,406.80086 62.950038,399.36383 62.8125,390.5 l -0.03735,-2.94702 C 62.335581,368.73359 53.995883,350.74258 43.4375,335.375 c -2.150385,-3.4003 -4.251367,-6.83145 -6.361084,-10.25708 -1.988556,-3.20024 -4.026594,-6.31403 -6.256104,-9.3523 C 28.652594,312.7818 27.046283,309.69893 25.4375,306.375 24.227069,304.40503 22.996718,302.44721 21.75,300.5 17.802463,294.22448 14.508994,287.70298 11.257813,281.04687 9.8117754,278.09474 8.265978,275.2246 6.625,272.375 5.043344,269.619 3.8558132,266.93903 2.8125,263.9375 1.7506719,260.16742 1.7506719,260.16742 -1.5625,258.375 Z m 179,103 c -1.36376,4.71282 -2.64309,9.43804 -3.875,14.1875 -0.70075,2.60629 -1.41285,5.20928 -2.125,7.8125 l -0.76172,2.9375 c -2.0012,6.87242 -5.14632,12.98715 -8.55078,19.25 l -1.36353,2.52026 c -4.44186,7.94898 -9.71311,15.01192 -16.32397,21.29224 l -1.44141,1.53906 c -5.28547,5.5784 -11.36612,9.95415 -17.55859,14.46094 -1.33447,0.99849 -2.66801,1.99821 -4,3 10.17935,0.0928 20.35859,0.16382 30.53828,0.20725 4.72722,0.0208 9.45415,0.0491 14.1812,0.0945 4.5647,0.0436 9.12911,0.0674 13.694,0.0777 1.73869,0.007 3.47736,0.0218 5.21593,0.0434 2.44165,0.0292 4.88216,0.033 7.32396,0.0312 l 2.16225,0.0436 c 6.06375,-0.0494 10.25473,-2.0183 14.66172,-6.17346 2.98077,-4.20519 3.97907,-7.02937 3.22266,-12.32422 -5.66564,-14.14628 -12.76898,-27.79087 -19.97266,-41.20313 -2.79477,-5.20648 -5.41091,-10.49913 -8.02734,-15.79687 -1.12397,-2.25052 -2.24895,-4.50053 -3.375,-6.75 l -2.625,-5.25 z"
     id="path1"
     fill="url(#flameGrad)"
     transform="translate(238.5625,22.625)" />
</svg>
